<svg width="47" height="51" viewBox="0 0 47 51" fill="none" xmlns="http://www.w3.org/2000/svg">
<path d="M23.625 50.4288C24.5122 50.4288 25.3773 50.1403 26.442 49.5193L43.7883 39.4487C45.585 38.4061 46.2948 37.5854 46.2948 36.3654C46.2948 35.1676 45.585 34.3469 43.7883 33.3043L26.442 23.2337C25.3773 22.6127 24.5122 22.3242 23.625 22.3242C22.7155 22.3242 21.8726 22.6127 20.8079 23.2337L3.43942 33.3043C1.64269 34.3469 0.955048 35.1676 0.955048 36.3654C0.955048 37.5854 1.64269 38.4061 3.43942 39.4487L20.8079 49.5193C21.8726 50.1403 22.7155 50.4288 23.625 50.4288Z" fill="#3E3E3E" fill-opacity="0.3"/>
<path d="M23.625 40.2252C24.5122 40.2252 25.3773 39.9369 26.442 39.3159L43.7883 29.223C45.585 28.1806 46.2948 27.382 46.2948 26.1621C46.2948 24.9419 45.585 24.1433 43.7883 23.0788L26.442 13.0081C25.3773 12.387 24.5122 12.0986 23.625 12.0986C22.7155 12.0986 21.8726 12.387 20.8079 13.0081L3.43942 23.0788C1.64269 24.1433 0.955048 24.9419 0.955048 26.1621C0.955048 27.382 1.64269 28.1806 3.43942 29.223L20.8079 39.3159C21.8726 39.9369 22.7155 40.2252 23.625 40.2252Z" fill="#FCFEF7"/>
<path d="M23.625 40.2252C24.5122 40.2252 25.3773 39.9369 26.442 39.3159L43.7883 29.223C45.585 28.1806 46.2948 27.382 46.2948 26.1621C46.2948 24.9419 45.585 24.1433 43.7883 23.0788L26.442 13.0081C25.3773 12.387 24.5122 12.0986 23.625 12.0986C22.7155 12.0986 21.8726 12.387 20.8079 13.0081L3.43942 23.0788C1.64269 24.1433 0.955048 24.9419 0.955048 26.1621C0.955048 27.382 1.64269 28.1806 3.43942 29.223L20.8079 39.3159C21.8726 39.9369 22.7155 40.2252 23.625 40.2252ZM23.625 36.3435C23.3144 36.3435 23.0038 36.2326 22.6267 36.0329L5.74634 26.3837C5.65762 26.3173 5.59107 26.2728 5.59107 26.1621C5.59107 26.0511 5.65762 25.9845 5.74634 25.9402L22.6267 16.291C23.0038 16.0692 23.3144 15.9805 23.625 15.9805C23.9355 15.9805 24.2461 16.0692 24.601 16.291L41.4815 25.9402C41.5924 25.9845 41.6589 26.0511 41.6589 26.1621C41.6589 26.2728 41.5924 26.3173 41.4815 26.3837L24.601 36.0329C24.2461 36.2326 23.9355 36.3435 23.625 36.3435Z" fill="#3E3E3E" fill-opacity="0.3"/>
<path d="M23.625 29.2891C24.5122 29.2891 25.3773 29.0008 26.442 28.3795L43.7883 18.309C45.585 17.2665 46.2948 16.4457 46.2948 15.2257C46.2948 14.0279 45.585 13.2072 43.7883 12.1646L26.442 2.09402C25.3773 1.47294 24.5122 1.18457 23.625 1.18457C22.7155 1.18457 21.8726 1.47294 20.8079 2.09402L3.43942 12.1646C1.64269 13.2072 0.955048 14.0279 0.955048 15.2257C0.955048 16.4457 1.64269 17.2665 3.43942 18.309L20.8079 28.3795C21.8726 29.0008 22.7155 29.2891 23.625 29.2891Z" fill="#FCFEF7"/>
<path d="M23.625 29.2891C24.5122 29.2891 25.3773 29.0008 26.442 28.3795L43.7883 18.309C45.585 17.2665 46.2948 16.4457 46.2948 15.2257C46.2948 14.0279 45.585 13.2072 43.7883 12.1646L26.442 2.09402C25.3773 1.47294 24.5122 1.18457 23.625 1.18457C22.7155 1.18457 21.8726 1.47294 20.8079 2.09402L3.43942 12.1646C1.64269 13.2072 0.955048 14.0279 0.955048 15.2257C0.955048 16.4457 1.64269 17.2665 3.43942 18.309L20.8079 28.3795C21.8726 29.0008 22.7155 29.2891 23.625 29.2891ZM23.625 25.4293C23.3144 25.4293 23.0038 25.3184 22.6267 25.1189L5.74634 15.4475C5.65762 15.4032 5.59107 15.3366 5.59107 15.2257C5.59107 15.137 5.65762 15.0704 5.74634 15.0261L22.6267 5.35477C23.0038 5.15513 23.3144 5.04423 23.625 5.04423C23.9355 5.04423 24.2461 5.15513 24.601 5.35477L41.4815 15.0261C41.5924 15.0704 41.6589 15.137 41.6589 15.2257C41.6589 15.3366 41.5924 15.4032 41.4815 15.4475L24.601 25.1189C24.2461 25.3184 23.9355 25.4293 23.625 25.4293Z" fill="#3E3E3E" fill-opacity="0.3"/>
</svg>
