<svg width="100" height="100" viewBox="0 0 100 100" fill="none" xmlns="http://www.w3.org/2000/svg">
<path d="M49.6676 97.3922C51.3164 97.3922 52.9241 96.8561 54.9029 95.7019L87.1409 76.9859C90.48 75.0482 91.7992 73.5229 91.7992 71.2556C91.7992 69.0295 90.48 67.5042 87.1409 65.5665L54.9029 46.8505C52.9241 45.6963 51.3164 45.1602 49.6676 45.1602C47.9773 45.1602 46.4108 45.6963 44.432 46.8505L12.1528 65.5665C8.81362 67.5042 7.53564 69.0295 7.53564 71.2556C7.53564 73.5229 8.81362 75.0482 12.1528 76.9859L44.432 95.7019C46.4108 96.8561 47.9773 97.3922 49.6676 97.3922Z" fill="#133D15"/>
<path d="M49.6676 78.4283C51.3164 78.4283 52.9241 77.8925 54.9029 76.7383L87.1409 57.9807C90.48 56.0434 91.7992 54.5593 91.7992 52.292C91.7992 50.0244 90.48 48.5402 87.1409 46.5618L54.9029 27.8455C52.9241 26.6912 51.3164 26.1553 49.6676 26.1553C47.9773 26.1553 46.4108 26.6912 44.432 27.8455L12.1528 46.5618C8.81362 48.5402 7.53564 50.0244 7.53564 52.292C7.53564 54.5593 8.81362 56.0434 12.1528 57.9807L44.432 76.7383C46.4108 77.8925 47.9773 78.4283 49.6676 78.4283Z" fill="#BCFE2B"/>
<path d="M49.6676 78.4283C51.3164 78.4283 52.9241 77.8925 54.9029 76.7383L87.1409 57.9807C90.48 56.0434 91.7992 54.5593 91.7992 52.292C91.7992 50.0244 90.48 48.5402 87.1409 46.5618L54.9029 27.8455C52.9241 26.6912 51.3164 26.1553 49.6676 26.1553C47.9773 26.1553 46.4108 26.6912 44.432 27.8455L12.1528 46.5618C8.81362 48.5402 7.53564 50.0244 7.53564 52.292C7.53564 54.5593 8.81362 56.0434 12.1528 57.9807L44.432 76.7383C46.4108 77.8925 47.9773 78.4283 49.6676 78.4283ZM49.6676 71.2142C49.0903 71.2142 48.5131 71.0081 47.8123 70.6369L16.4402 52.7039C16.2753 52.5805 16.1517 52.4978 16.1517 52.292C16.1517 52.0859 16.2753 51.962 16.4402 51.8797L47.8123 33.9468C48.5131 33.5345 49.0903 33.3696 49.6676 33.3696C50.2445 33.3696 50.8218 33.5345 51.4814 33.9468L82.8537 51.8797C83.0598 51.962 83.1833 52.0859 83.1833 52.292C83.1833 52.4978 83.0598 52.5805 82.8537 52.7039L51.4814 70.6369C50.8218 71.0081 50.2445 71.2142 49.6676 71.2142Z" fill="#0F3F15"/>
<path d="M49.6676 58.105C51.3164 58.105 52.9241 57.5692 54.9029 56.4146L87.1409 37.6987C90.48 35.7611 91.7992 34.2358 91.7992 31.9684C91.7992 29.7423 90.48 28.2169 87.1409 26.2794L54.9029 7.56326C52.9241 6.40897 51.3164 5.87305 49.6676 5.87305C47.9773 5.87305 46.4108 6.40897 44.432 7.56326L12.1528 26.2794C8.81362 28.2169 7.53564 29.7423 7.53564 31.9684C7.53564 34.2358 8.81362 35.7611 12.1528 37.6987L44.432 56.4146C46.4108 57.5692 47.9773 58.105 49.6676 58.105Z" fill="#BCFE2B"/>
<path d="M49.6676 58.105C51.3164 58.105 52.9241 57.5692 54.9029 56.4146L87.1409 37.6987C90.48 35.7611 91.7992 34.2358 91.7992 31.9684C91.7992 29.7423 90.48 28.2169 87.1409 26.2794L54.9029 7.56326C52.9241 6.40897 51.3164 5.87305 49.6676 5.87305C47.9773 5.87305 46.4108 6.40897 44.432 7.56326L12.1528 26.2794C8.81362 28.2169 7.53564 29.7423 7.53564 31.9684C7.53564 34.2358 8.81362 35.7611 12.1528 37.6987L44.432 56.4146C46.4108 57.5692 47.9773 58.105 49.6676 58.105ZM49.6676 50.9317C49.0903 50.9317 48.5131 50.7256 47.8123 50.3548L16.4402 32.3806C16.2753 32.2982 16.1517 32.1745 16.1517 31.9684C16.1517 31.8035 16.2753 31.6798 16.4402 31.5974L47.8123 13.6233C48.5131 13.2523 49.0903 13.0462 49.6676 13.0462C50.2445 13.0462 50.8218 13.2523 51.4814 13.6233L82.8537 31.5974C83.0598 31.6798 83.1833 31.8035 83.1833 31.9684C83.1833 32.1745 83.0598 32.2982 82.8537 32.3806L51.4814 50.3548C50.8218 50.7256 50.2445 50.9317 49.6676 50.9317Z" fill="#0C4013"/>
</svg>
