<svg width="23" height="23" viewBox="0 0 23 23" fill="none" xmlns="http://www.w3.org/2000/svg">
<path d="M0.625 5.88281C0.625 6.33984 0.988281 6.70312 1.45703 6.70312H3.83594V9.09375C3.83594 9.5625 4.21094 9.91406 4.65625 9.91406C5.125 9.91406 5.48828 9.55078 5.48828 9.09375V6.70312H7.87891C8.33594 6.70312 8.71094 6.33984 8.71094 5.88281C8.71094 5.42578 8.33594 5.05078 7.87891 5.05078H5.48828V2.66016C5.48828 2.20312 5.11328 1.82812 4.65625 1.82812C4.19922 1.82812 3.83594 2.20312 3.83594 2.66016V5.05078H1.45703C0.988281 5.05078 0.625 5.42578 0.625 5.88281ZM12.5195 11.543L19.3164 1.48828C19.4805 1.26562 19.5391 1.06641 19.5391 0.832031C19.5391 0.363281 19.1289 0 18.6484 0C18.2383 0 18.0156 0.128906 17.6875 0.609375L10.9609 10.5938L4.15234 20.625C4 20.8477 3.91797 21.0352 3.91797 21.293C3.91797 21.7969 4.33984 22.1367 4.85547 22.1367C5.24219 22.1367 5.46484 21.9727 5.76953 21.5391L12.5195 11.543ZM14.7109 17.0625C14.7109 17.5195 15.0742 17.8945 15.5312 17.8945H21.9648C22.4219 17.8945 22.7969 17.5195 22.7969 17.0625C22.7969 16.6055 22.4219 16.2422 21.9648 16.2422H15.5312C15.0742 16.2422 14.7109 16.6055 14.7109 17.0625Z" fill="#878987"/>
</svg>
