<svg width="24" height="22" viewBox="0 0 24 22" fill="none" xmlns="http://www.w3.org/2000/svg">
<path d="M4.05469 21.5977H20.0625C22.5117 21.5977 23.7305 20.3789 23.7305 17.9648V3.65625C23.7305 1.24219 22.5117 0.0234375 20.0625 0.0234375H4.05469C1.60547 0.0234375 0.375 1.23047 0.375 3.65625V17.9648C0.375 20.3906 1.60547 21.5977 4.05469 21.5977ZM3.87891 19.7109C2.83594 19.7109 2.26172 19.1602 2.26172 18.0703V7.01953C2.26172 5.94141 2.83594 5.37891 3.87891 5.37891H20.2148C21.2578 5.37891 21.8438 5.94141 21.8438 7.01953V18.0703C21.8438 19.1602 21.2578 19.7109 20.2148 19.7109H3.87891ZM9.77344 9.58594H10.4648C10.875 9.58594 11.0039 9.46875 11.0039 9.05859V8.36719C11.0039 7.95703 10.875 7.82812 10.4648 7.82812H9.77344C9.36328 7.82812 9.22266 7.95703 9.22266 8.36719V9.05859C9.22266 9.46875 9.36328 9.58594 9.77344 9.58594ZM13.6641 9.58594H14.3555C14.7656 9.58594 14.9062 9.46875 14.9062 9.05859V8.36719C14.9062 7.95703 14.7656 7.82812 14.3555 7.82812H13.6641C13.2539 7.82812 13.1133 7.95703 13.1133 8.36719V9.05859C13.1133 9.46875 13.2539 9.58594 13.6641 9.58594ZM17.5547 9.58594H18.2461C18.6562 9.58594 18.7969 9.46875 18.7969 9.05859V8.36719C18.7969 7.95703 18.6562 7.82812 18.2461 7.82812H17.5547C17.1445 7.82812 17.0156 7.95703 17.0156 8.36719V9.05859C17.0156 9.46875 17.1445 9.58594 17.5547 9.58594ZM5.88281 13.418H6.5625C6.98438 13.418 7.11328 13.3008 7.11328 12.8906V12.1992C7.11328 11.7891 6.98438 11.6719 6.5625 11.6719H5.88281C5.46094 11.6719 5.33203 11.7891 5.33203 12.1992V12.8906C5.33203 13.3008 5.46094 13.418 5.88281 13.418ZM9.77344 13.418H10.4648C10.875 13.418 11.0039 13.3008 11.0039 12.8906V12.1992C11.0039 11.7891 10.875 11.6719 10.4648 11.6719H9.77344C9.36328 11.6719 9.22266 11.7891 9.22266 12.1992V12.8906C9.22266 13.3008 9.36328 13.418 9.77344 13.418ZM13.6641 13.418H14.3555C14.7656 13.418 14.9062 13.3008 14.9062 12.8906V12.1992C14.9062 11.7891 14.7656 11.6719 14.3555 11.6719H13.6641C13.2539 11.6719 13.1133 11.7891 13.1133 12.1992V12.8906C13.1133 13.3008 13.2539 13.418 13.6641 13.418ZM17.5547 13.418H18.2461C18.6562 13.418 18.7969 13.3008 18.7969 12.8906V12.1992C18.7969 11.7891 18.6562 11.6719 18.2461 11.6719H17.5547C17.1445 11.6719 17.0156 11.7891 17.0156 12.1992V12.8906C17.0156 13.3008 17.1445 13.418 17.5547 13.418ZM5.88281 17.2617H6.5625C6.98438 17.2617 7.11328 17.1328 7.11328 16.7227V16.0312C7.11328 15.6211 6.98438 15.5039 6.5625 15.5039H5.88281C5.46094 15.5039 5.33203 15.6211 5.33203 16.0312V16.7227C5.33203 17.1328 5.46094 17.2617 5.88281 17.2617ZM9.77344 17.2617H10.4648C10.875 17.2617 11.0039 17.1328 11.0039 16.7227V16.0312C11.0039 15.6211 10.875 15.5039 10.4648 15.5039H9.77344C9.36328 15.5039 9.22266 15.6211 9.22266 16.0312V16.7227C9.22266 17.1328 9.36328 17.2617 9.77344 17.2617ZM13.6641 17.2617H14.3555C14.7656 17.2617 14.9062 17.1328 14.9062 16.7227V16.0312C14.9062 15.6211 14.7656 15.5039 14.3555 15.5039H13.6641C13.2539 15.5039 13.1133 15.6211 13.1133 16.0312V16.7227C13.1133 17.1328 13.2539 17.2617 13.6641 17.2617Z" fill="#878987"/>
</svg>
