<svg width="29" height="25" viewBox="0 0 29 25" fill="none" xmlns="http://www.w3.org/2000/svg">
<path d="M11.4805 23.4053H18.2422V14.874C18.2422 14.335 17.8906 13.9834 17.3516 13.9834H12.3828C11.832 13.9834 11.4805 14.335 11.4805 14.874V23.4053ZM6.89844 24.6123H22.7539C24.418 24.6123 25.3906 23.6631 25.3906 22.0225V9.07324L23.5039 7.78418V21.542C23.5039 22.3037 23.0938 22.7256 22.3555 22.7256H7.29688C6.54688 22.7256 6.13672 22.3037 6.13672 21.542V7.7959L4.25 9.07324V22.0225C4.25 23.6631 5.22266 24.6123 6.89844 24.6123ZM0.875 11.5693C0.875 12.0498 1.25 12.5068 1.88281 12.5068C2.21094 12.5068 2.48047 12.3311 2.72656 12.1318L14.457 2.28809C14.7148 2.05371 15.0312 2.05371 15.2891 2.28809L27.0195 12.1318C27.2539 12.3311 27.5234 12.5068 27.8516 12.5068C28.4023 12.5068 28.8477 12.167 28.8477 11.6045C28.8477 11.2529 28.7305 11.0186 28.4844 10.8076L16.2852 0.553711C15.418 -0.18457 14.3398 -0.18457 13.4609 0.553711L1.25 10.8076C0.992188 11.0186 0.875 11.2998 0.875 11.5693ZM22.4492 6.28418L25.3906 8.76855V3.35449C25.3906 2.83887 25.0625 2.51074 24.5469 2.51074H23.293C22.7891 2.51074 22.4492 2.83887 22.4492 3.35449V6.28418Z" fill="#878987"/>
</svg>
