<svg width="26" height="26" viewBox="0 0 26 26" fill="none" xmlns="http://www.w3.org/2000/svg">
<path d="M11.4805 25.0547H13.8477C14.75 25.0547 15.4414 24.5039 15.6523 23.6367L16.1562 21.4453L16.5312 21.3164L18.4414 22.4883C19.2031 22.9688 20.082 22.8516 20.7266 22.207L22.3672 20.5781C23.0117 19.9336 23.1289 19.043 22.6484 18.293L21.4531 16.3945L21.5938 16.043L23.7852 15.5273C24.6406 15.3164 25.2031 14.6133 25.2031 13.7227V11.4023C25.2031 10.5117 24.6523 9.80859 23.7852 9.59766L21.6172 9.07031L21.4648 8.69531L22.6602 6.79688C23.1406 6.04688 23.0234 5.16797 22.3789 4.51172L20.7383 2.87109C20.1055 2.23828 19.2266 2.12109 18.4648 2.58984L16.5547 3.76172L16.1562 3.60938L15.6523 1.41797C15.4414 0.550781 14.75 0 13.8477 0H11.4805C10.5781 0 9.88672 0.550781 9.67578 1.41797L9.16016 3.60938L8.76172 3.76172L6.86328 2.58984C6.10156 2.12109 5.21094 2.23828 4.57812 2.87109L2.94922 4.51172C2.30469 5.16797 2.17578 6.04688 2.66797 6.79688L3.85156 8.69531L3.71094 9.07031L1.54297 9.59766C0.675781 9.80859 0.125 10.5117 0.125 11.4023V13.7227C0.125 14.6133 0.6875 15.3164 1.54297 15.5273L3.73438 16.043L3.86328 16.3945L2.67969 18.293C2.1875 19.043 2.31641 19.9336 2.96094 20.5781L4.58984 22.207C5.23438 22.8516 6.125 22.9688 6.88672 22.4883L8.78516 21.3164L9.16016 21.4453L9.67578 23.6367C9.88672 24.5039 10.5781 25.0547 11.4805 25.0547ZM11.668 23.2266C11.4688 23.2266 11.3633 23.1445 11.3281 22.957L10.625 20.0508C9.91016 19.875 9.24219 19.5938 8.73828 19.2773L6.18359 20.8477C6.04297 20.9531 5.89062 20.9297 5.75 20.7891L4.36719 19.4062C4.23828 19.2773 4.22656 19.1367 4.32031 18.9727L5.89062 16.4414C5.62109 15.9492 5.31641 15.2812 5.12891 14.5664L2.22266 13.875C2.03516 13.8398 1.95312 13.7344 1.95312 13.5352V11.5781C1.95312 11.3672 2.02344 11.2734 2.22266 11.2383L5.11719 10.5352C5.30469 9.77344 5.65625 9.08203 5.86719 8.64844L4.30859 6.11719C4.20312 5.94141 4.21484 5.80078 4.34375 5.66016L5.73828 4.30078C5.87891 4.16016 6.00781 4.13672 6.18359 4.24219L8.71484 5.77734C9.21875 5.49609 9.93359 5.20312 10.6367 5.00391L11.3281 2.09766C11.3633 1.91016 11.4688 1.82812 11.668 1.82812H13.6602C13.8594 1.82812 13.9648 1.91016 13.9883 2.09766L14.7031 5.02734C15.4297 5.21484 16.0625 5.50781 16.5898 5.78906L19.1328 4.24219C19.3203 4.13672 19.4375 4.16016 19.5898 4.30078L20.9727 5.66016C21.1133 5.80078 21.1133 5.94141 21.0078 6.11719L19.4492 8.64844C19.6719 9.08203 20.0117 9.77344 20.1992 10.5352L23.1055 11.2383C23.293 11.2734 23.375 11.3672 23.375 11.5781V13.5352C23.375 13.7344 23.2812 13.8398 23.1055 13.875L20.1875 14.5664C20 15.2812 19.707 15.9492 19.4258 16.4414L20.9961 18.9727C21.0898 19.1367 21.0898 19.2773 20.9492 19.4062L19.5781 20.7891C19.4258 20.9297 19.2852 20.9531 19.1328 20.8477L16.5781 19.2773C16.0742 19.5938 15.418 19.875 14.7031 20.0508L13.9883 22.957C13.9648 23.1445 13.8594 23.2266 13.6602 23.2266H11.668ZM12.6641 17.0039C15.1133 17.0039 17.1289 14.9883 17.1289 12.5273C17.1289 10.0898 15.1133 8.07422 12.6641 8.07422C10.2148 8.07422 8.1875 10.0898 8.1875 12.5273C8.1875 14.9766 10.2031 17.0039 12.6641 17.0039ZM12.6641 15.1875C11.2109 15.1875 10.0156 13.9922 10.0156 12.5273C10.0156 11.0859 11.2109 9.89062 12.6641 9.89062C14.0938 9.89062 15.2891 11.0859 15.2891 12.5273C15.2891 13.9805 14.0938 15.1875 12.6641 15.1875Z" fill="#878987"/>
</svg>
