<svg width="28" height="29" viewBox="0 0 28 29" fill="none" xmlns="http://www.w3.org/2000/svg">
<path d="M25.9062 14.5469C25.9062 8.0078 20.4805 2.5938 13.9531 2.5938C7.41406 2.5938 2 8.0195 2 14.5586C2 21.0859 7.41406 26.5 13.9531 26.5C20.4805 26.5 25.9062 21.0742 25.9062 14.5469Z" fill="#1C5337"/>
<path d="M7.80078 14.5352C7.80078 13.9961 8.17578 13.6211 8.71484 13.6211L14.7266 13.6211L17.3047 13.7266L15.8398 12.4961L14.3984 11.0781C14.2109 10.9141 14.1289 10.6914 14.1289 10.4336C14.1289 9.9297 14.5039 9.543 15.0078 9.543C15.2656 9.543 15.4766 9.6367 15.6406 9.8008L19.6484 13.8203C19.8828 14.0547 20 14.2656 20 14.5352C20 14.793 19.8945 14.9922 19.6484 15.2383L15.6406 19.2695C15.4766 19.4336 15.2656 19.5039 15.0078 19.5039C14.5039 19.5039 14.1289 19.1289 14.1289 18.625C14.1289 18.3789 14.2227 18.1445 14.3984 17.9805L15.8398 16.5508L17.293 15.3438L14.7266 15.4492L8.71484 15.4492C8.17578 15.4492 7.80078 15.0625 7.80078 14.5352Z" fill="white"/>
</svg>
