<svg width="94" height="112" viewBox="0 0 94 112" fill="none" xmlns="http://www.w3.org/2000/svg">
<g opacity="0.3" clip-path="url(#clip0_1_140)">
<path d="M64.3028 5.36178C65.7844 5.24577 66.2786 4.28193 66.2058 3.1698C66.1069 1.68745 63.6035 -5.2495 63.6035 -5.2495C63.6035 -5.2495 62.0272 1.94728 62.1224 3.42293C62.1952 4.53505 62.8125 5.44547 64.2957 5.34251L64.3028 5.36178Z" fill="#1C5337"/>
<path d="M69.8676 5.5457C71.3443 5.72739 72.0158 4.87195 72.1622 3.76651C72.3566 2.2941 71.2533 -4.99107 71.2533 -4.99107C71.2533 -4.99107 68.3047 1.76704 68.1089 3.23406C67.9642 4.33902 68.3934 5.3518 69.8676 5.5457Z" fill="#1C5337"/>
<path d="M75.2911 6.80987C76.7039 7.2704 77.5358 6.56828 77.8883 5.51349C78.3674 4.10529 78.7067 -3.25466 78.7067 -3.25466C78.7067 -3.25466 74.4981 2.8018 74.0184 4.20054C73.661 5.25858 73.8833 6.33256 75.2947 6.8089L75.2911 6.80987Z" fill="#1C5337"/>
<path d="M80.3638 9.10725C81.6599 9.8358 82.6079 9.3085 83.1652 8.34315C83.9079 7.05677 85.677 -0.095451 85.677 -0.095451C85.677 -0.095451 80.3747 5.01081 79.6253 6.3009C79.068 7.26625 79.0776 8.37223 80.3638 9.10725Z" fill="#1C5337"/>
<path d="M84.8899 12.351C86.0209 13.3182 87.052 12.9861 87.7888 12.1517C88.7675 11.0349 91.8993 4.36438 91.8993 4.36438C91.8993 4.36438 85.6945 8.3364 84.715 9.45721C83.9774 10.2957 83.7742 11.376 84.8909 12.3546L84.8899 12.351Z" fill="#1C5337"/>
<path d="M88.6988 16.4174C89.6176 17.5839 90.6932 17.4612 91.5778 16.7834C92.7576 15.8784 97.1306 9.94722 97.1306 9.94722C97.1306 9.94722 90.2698 12.6343 89.09 13.5393C88.2059 14.2189 87.7928 15.2341 88.706 16.4155L88.6988 16.4174Z" fill="#1C5337"/>
<path d="M91.6381 21.1459C92.3129 22.472 93.393 22.5598 94.3872 22.0683C95.7199 21.4109 101.166 16.447 101.166 16.447C101.166 16.447 93.9122 17.746 92.5795 18.4033C91.58 18.8963 90.9754 19.8146 91.6327 21.1473L91.6381 21.1459Z" fill="#1C5337"/>
<path d="M93.6008 26.359C94.0037 27.7907 95.0458 28.0888 96.1214 27.8006C97.5579 27.4157 103.866 23.6083 103.866 23.6083C103.866 23.6083 96.4994 23.4653 95.0629 23.8502C93.9855 24.1389 93.2159 24.9225 93.6008 26.359Z" fill="#1C5337"/>
<path d="M94.5076 31.855C94.6236 33.3366 95.5875 33.8309 96.6996 33.7581C98.1824 33.661 105.114 31.1589 105.114 31.1589C105.114 31.1589 97.9154 29.5832 96.4326 29.6803C95.3205 29.7531 94.41 30.3704 94.513 31.8536L94.5076 31.855Z" fill="#1C5337"/>
<path d="M94.3261 37.4192C94.1449 38.8977 94.9986 39.5697 96.0968 39.718C97.571 39.9119 104.856 38.8086 104.856 38.8086C104.856 38.8086 98.0999 35.8595 96.6293 35.6647C95.5243 35.52 94.5133 35.9487 94.3189 37.4211L94.3261 37.4192Z" fill="#1C5337"/>
<path d="M93.0606 42.845C92.6001 44.2579 93.3022 45.0897 94.357 45.4422C95.7647 45.9195 103.125 46.2606 103.125 46.2606C103.125 46.2606 97.0777 42.0496 95.6717 41.5719C94.6137 41.2145 93.5379 41.4373 93.0616 42.8486L93.0606 42.845Z" fill="#1C5337"/>
<path d="M90.7632 47.9174C90.0347 49.2135 90.5615 50.1597 91.5268 50.717C92.8137 51.4615 99.9659 53.2306 99.9659 53.2306C99.9659 53.2306 94.8577 47.9212 93.5714 47.1785C92.606 46.6211 91.5 46.6307 90.7632 47.9174Z" fill="#1C5337"/>
<path d="M87.5187 52.4433C86.5515 53.5742 86.8836 54.6054 87.7176 55.3403C88.8348 56.3208 95.5054 59.4526 95.5054 59.4526C95.5054 59.4526 91.5334 53.2478 90.4125 52.2683C89.574 51.5307 88.4956 51.327 87.5151 52.4442L87.5187 52.4433Z" fill="#1C5337"/>
<path d="M83.454 56.2507C82.2862 57.1718 82.409 58.2474 83.0867 59.132C83.9898 60.3046 89.9219 64.6812 89.9219 64.6812C89.9219 64.6812 87.2349 57.8204 86.3303 56.6424C85.6508 55.7583 84.6351 55.3434 83.4535 56.2489L83.454 56.2507Z" fill="#1C5337"/>
<path d="M57.0252 60.6139C55.6124 60.1534 54.7805 60.8555 54.428 61.9103C53.9507 63.318 53.6096 70.6785 53.6096 70.6785C53.6096 70.6785 57.8206 64.631 58.2979 63.2233C58.6553 62.1652 58.4329 61.0912 57.0216 60.6149L57.0252 60.6139Z" fill="#1C5337"/>
<path d="M51.9542 58.3167C50.6564 57.5886 49.7102 58.1154 49.1528 59.0808C48.4084 60.3677 46.6393 67.5199 46.6393 67.5199C46.6393 67.5199 51.9487 62.4117 52.6927 61.123C53.2501 60.1577 53.2387 59.0522 51.9542 58.3167Z" fill="#1C5337"/>
<path d="M47.4264 55.0722C46.2955 54.105 45.2644 54.4371 44.5294 55.2711C43.5489 56.3883 40.4171 63.0588 40.4171 63.0588C40.4171 63.0588 46.6219 59.0868 47.6014 57.966C48.339 57.1275 48.5422 56.0473 47.4255 55.0686L47.4264 55.0722Z" fill="#1C5337"/>
<path d="M43.6229 51.0046C42.7024 49.8386 41.6267 49.9614 40.7421 50.6391C39.5623 51.5441 35.1911 57.4748 35.1911 57.4748C35.1911 57.4748 42.0519 54.7877 43.2299 53.8832C44.1158 53.2032 44.5289 52.1879 43.614 51.007L43.6229 51.0046Z" fill="#1C5337"/>
<path d="M40.6782 46.2786C40.0034 44.9525 38.925 44.8642 37.9291 45.3563C36.5964 46.0136 31.1591 50.9751 31.1591 50.9751C31.1591 50.9751 38.4112 49.6767 39.7439 49.0193C40.7453 48.5258 41.3481 47.608 40.6907 46.2753L40.6782 46.2786Z" fill="#1C5337"/>
<path d="M38.7155 41.0653C38.3127 39.6337 37.2723 39.3351 36.1949 39.6237C34.7584 40.0086 28.4499 43.816 28.4499 43.816C28.4499 43.816 35.8169 43.959 37.2534 43.5741C38.3308 43.2854 39.1004 42.5019 38.7155 41.0653Z" fill="#1C5337"/>
<path d="M37.8086 35.5693C37.6926 34.0877 36.7306 33.593 35.6167 33.6663C34.1338 33.7634 27.2041 36.2649 27.2041 36.2649C27.2041 36.2649 34.4008 37.8412 35.8765 37.746C36.9904 37.6727 37.899 37.0559 37.7961 35.5727L37.8086 35.5693Z" fill="#1C5337"/>
<path d="M37.9956 30.0032C38.1768 28.5247 37.3231 27.8527 36.2249 27.7043C34.7525 27.51 27.4673 28.6133 27.4673 28.6133C27.4673 28.6133 34.2236 31.5623 35.6924 31.7577C36.7974 31.9023 37.8102 31.4732 38.0045 30.0008L37.9956 30.0032Z" fill="#1C5337"/>
<path d="M39.2557 24.5787C39.7162 23.1658 39.0141 22.334 37.9593 21.9815C36.5516 21.5042 29.1912 21.1631 29.1912 21.1631C29.1912 21.1631 35.2386 25.3741 36.6464 25.8514C37.7044 26.2087 38.7784 25.9864 39.2547 24.5751L39.2557 24.5787Z" fill="#1C5337"/>
<path d="M41.555 19.5061C42.2817 18.2105 41.7567 17.2638 40.7913 16.7064C39.5027 15.9624 32.3505 14.1934 32.3505 14.1934C32.3505 14.1934 37.4586 19.5028 38.7468 20.245C39.7122 20.8024 40.8181 20.7928 41.555 19.5061Z" fill="#1C5337"/>
<path d="M72.6095 57.9112C85.9528 54.3359 93.8713 40.6206 90.296 27.2773C86.7206 13.9339 73.0054 6.01541 59.662 9.59074C46.3187 13.1661 38.4002 26.8813 41.9755 40.2247C45.5509 53.568 59.2662 61.4865 72.6095 57.9112Z" fill="#1C5337"/>
<path d="M58.805 6.26958C60.2367 5.86671 60.5353 4.82635 60.2466 3.74897C59.8617 2.31246 56.0543 -3.99605 56.0543 -3.99605C56.0543 -3.99605 55.9113 3.37097 56.2962 4.80747C56.5849 5.88485 57.3685 6.65449 58.805 6.26958Z" fill="#1C5337"/>
<path d="M78.7263 59.1913C77.4002 59.8661 77.3124 60.9462 77.804 61.9404C78.4613 63.2731 83.4228 68.7104 83.4228 68.7104C83.4228 68.7104 82.1243 61.4583 81.467 60.1255C80.974 59.126 80.0557 58.5214 78.7229 59.1788L78.7263 59.1913Z" fill="#1C5337"/>
<path d="M73.5114 61.1543C72.0798 61.5572 71.7812 62.5976 72.0698 63.675C72.4547 65.1115 76.2621 71.42 76.2621 71.42C76.2621 71.42 76.4051 64.053 76.0202 62.6165C75.7315 61.5391 74.948 60.7694 73.5114 61.1543Z" fill="#1C5337"/>
<path d="M68.0172 62.0607C66.5338 62.1771 66.0396 63.141 66.1124 64.2531C66.2095 65.7359 68.711 72.6657 68.711 72.6657C68.711 72.6657 70.2891 65.4684 70.1939 63.9928C70.1193 62.8812 69.502 61.9707 68.0206 62.0732L68.0172 62.0607Z" fill="#1C5337"/>
<path d="M62.4505 61.8781C60.972 61.6969 60.3005 62.5523 60.1541 63.6578C59.9597 65.1302 61.063 72.4153 61.063 72.4153C61.063 72.4153 64.0121 65.659 64.2074 64.1902C64.3521 63.0853 63.9229 62.0725 62.4505 61.8781Z" fill="#1C5337"/>
<path d="M44.7976 14.98C45.7648 13.849 45.4327 12.8179 44.5987 12.083C43.4803 11.1124 36.8074 7.97168 36.8074 7.97168C36.8074 7.97168 40.7794 14.1764 41.9002 15.1559C42.7387 15.8935 43.819 16.0968 44.7976 14.98Z" fill="#1C5337"/>
<path d="M48.8641 11.1732C50.0319 10.2521 49.9074 9.17693 49.2296 8.29233C48.3265 7.11977 42.3944 2.74316 42.3944 2.74316C42.3944 2.74316 45.0815 9.60397 45.986 10.7819C46.6656 11.666 47.6813 12.0809 48.8646 11.175L48.8641 11.1732Z" fill="#1C5337"/>
<path d="M53.5936 8.23112C54.9179 7.55679 55.0057 6.47669 54.516 5.48206C53.8572 4.14395 48.89 -1.30722 48.89 -1.30722C48.89 -1.30722 50.1885 5.94491 50.8458 7.27763C51.3388 8.27717 52.2572 8.88175 53.5917 8.22394L53.5936 8.23112Z" fill="#1C5337"/>
<path fill-rule="evenodd" clip-rule="evenodd" d="M76.6245 76.1341L76.4294 77.0794L76.2519 78.2702L76.1019 78.8454L75.9944 79.3707L75.9145 79.7905L75.7449 80.0842L75.0641 79.7701L74.3563 79.5132L73.6192 79.3624L72.846 79.2636L72.0563 79.2827L71.2666 79.3019L70.488 79.3623L69.6765 79.4797L68.0233 79.7744L66.3948 80.1608L64.795 80.4894L63.2655 80.7067L62.3934 80.7922L61.5588 80.8234L61.1052 80.7967L60.6498 80.7706L60.2318 80.6901L59.8586 80.5977L59.2639 80.4106L58.6543 80.1756L57.9861 79.9081L57.3538 79.581L56.0143 78.8487L54.6762 78.1141L53.3511 77.428L52.1417 76.8071L51.5918 76.608L51.0414 76.4071L50.5767 76.3392L50.1231 76.3126L49.2867 76.3442L48.5302 76.3006L47.7732 76.2551L46.9912 76.1163L46.3151 75.9992L45.6145 75.7905L44.9582 75.5679L44.3492 75.3347L43.6827 75.0667L43.084 74.7287L42.4966 74.3896L41.9093 74.0581L40.7687 73.3206L39.6627 72.5257L37.411 70.7946L35.0556 69.0431L33.7504 68.2516L32.3998 67.4703L31.6495 67.0767L30.9096 66.7284L30.1372 66.4388L29.3057 66.115L29.1799 66.1988L29.0774 66.3763L28.9872 66.593L28.9559 66.8496L28.9379 67.3067L28.9393 67.4988L28.5791 67.4471L28.2632 67.3816L27.9012 67.3305L27.5939 67.3185L26.9923 67.4797L26.6942 67.6596L26.4062 67.885L26.8428 68.2145L27.4086 68.6595L27.9988 69.1961L28.5549 69.7919L29.1253 70.4339L29.5881 71.0547L29.7806 71.3996L29.9485 71.6529L30.08 71.9641L30.1546 72.2424L27.6533 72.9126L28.1741 73.3697L28.7394 73.8129L29.3518 74.2454L29.9984 74.6187L30.6408 74.9836L31.2893 75.3641L31.9109 75.644L32.4608 75.8431L31.9633 76.0264L31.2809 76.2593L30.6106 76.5371L30.1136 76.7222L30.6293 76.9805L31.2371 77.216L31.9053 77.4835L32.6185 77.7389L33.3281 77.9452L34.0167 78.109L34.6215 78.1394L35.1667 78.1415L35.4109 78.1261L35.6029 78.1247L35.7537 78.1343L35.8698 78.2014L35.929 78.2356L35.9771 78.4151L35.9555 78.521L35.9385 78.8239L35.9664 79.1147L35.9678 79.3068L36.0048 79.445L36.1136 79.6642L36.2084 79.8312L36.325 79.9L36.4896 79.9541L36.6942 79.9994L36.9383 79.984L37.1945 80.0135L37.4511 80.0448L37.7078 80.0761L37.9244 80.1662L37.9836 80.2004L38.0158 80.3207L37.9817 80.3799L37.8396 80.5681L37.6971 80.7545L37.5657 80.9822L37.4482 81.2619L37.4963 81.4415L37.4995 81.6331L37.606 81.8509L37.7216 82.1317L38.5845 82.1988L39.4922 82.2538L39.8867 82.2463L40.2959 82.2868L40.6113 82.3505L40.8804 82.4284L39.6729 84.0414L40.1891 84.3015L40.7732 84.4414L41.5085 84.5927L42.2188 84.6507L43.0224 84.6836L43.7544 84.6357L44.3952 84.6141L44.9501 84.4654L44.5392 84.9719L44.0026 85.5622L43.4086 86.1178L42.9978 86.6244L43.5482 86.8252L44.2848 86.9743L45.1237 87.146L46.1157 87.3286L48.3895 87.6623L50.85 87.9461L53.386 88.1595L55.8544 88.293L56.9609 88.3429L57.9495 88.3263L58.8448 88.3347L59.6239 88.276L58.1032 88.5334L56.6671 88.7257L55.2152 88.8665L53.8428 88.9378L52.4468 88.9135L51.0907 88.8804L49.7742 88.7867L48.4919 88.6337L45.974 88.3153L43.5943 87.9599L42.4646 87.8161L41.333 87.6728L40.262 87.5614L39.1896 87.4523L39.3837 87.2502L39.6375 87.084L39.9699 86.8449L40.3619 86.6416L41.1672 86.1276L41.8809 85.638L40.4294 85.7729L38.4305 85.9121L37.4312 85.8815L36.5808 85.8611L36.2214 85.8054L35.9073 85.7394L35.6387 85.6632L35.4616 85.5625L35.449 85.5158L35.4832 85.4566L35.609 85.3729L35.7245 85.2438L36.0569 85.0046L36.5298 84.7297L37.5542 84.1069L38.3941 83.5354L36.0138 83.7305L34.1795 83.9237L33.4937 83.9574L32.9357 83.9144L32.7316 83.871L32.5145 83.779L32.3517 83.7245L32.209 83.6088L32.3228 83.4801L32.7143 83.2751L33.2908 83.0206L33.9487 82.6961L34.6658 82.4058L35.2659 82.0526L35.5663 81.8739L35.8197 81.706L35.9622 81.5196L36.1042 81.3314L35.6973 81.2923L35.2969 81.2417L34.8086 81.2725L34.3222 81.3104L33.2204 81.4575L32.1185 81.6045L31.5243 81.6136L30.9898 81.6587L30.4336 81.6153L29.8755 81.5724L29.3501 81.4649L28.8431 81.2389L28.3757 81.01L27.9875 80.6675L28.0666 80.5963L28.2337 80.5015L28.4653 80.4395L28.8495 80.3865L29.6952 80.21L30.6342 80.0084L31.6769 79.8272L32.9877 79.4759L33.3456 79.3319L33.5989 79.164L33.7534 79.0225L32.5178 78.8571L30.8627 78.6058L29.9161 78.4129L28.9246 78.2321L27.9207 78.0046L26.931 77.7732L25.9612 77.4865L25.0243 77.1429L24.1335 76.7849L23.3366 76.4038L22.9712 76.1533L22.6201 75.9491L22.3664 75.7207L22.0998 75.4438L21.8229 75.2293L21.6429 74.9311L21.5235 74.6648L21.3927 74.3419L21.7159 74.2553L22.1001 74.2024L22.507 74.2415L22.9145 74.2825L23.7802 74.547L24.7393 74.7866L25.1713 74.9191L25.6499 75.0391L26.1146 75.1071L26.5234 75.1457L26.965 75.1275L27.3474 75.075L27.7568 74.9653L28.091 74.7257L26.7562 74.1903L25.214 73.4623L23.4407 72.5903L21.6317 71.5854L19.7983 70.4889L18.0578 69.3656L17.257 68.7545L16.4549 68.1746L15.7466 67.5638L15.0972 66.993L14.9557 66.8385L14.8671 66.5081L14.8763 66.3555L14.8859 66.2047L14.9992 66.0743L15.1004 65.899L15.2154 65.7681L15.383 65.6751L15.55 65.5803L15.9379 65.4764L16.182 65.461L16.3736 65.4578L16.5907 65.5497L16.766 65.6509L17.8242 66.2604L19.0565 66.9733L20.3617 67.7648L21.7613 68.5349L23.133 69.2085L24.4928 69.8373L25.1491 70.0598L25.7438 70.2468L26.375 70.376L26.9331 70.4189L26.4994 70.2869L25.9711 69.9819L25.2676 69.5758L24.4781 69.0425L22.7019 67.7863L20.7165 66.2879L19.7021 65.4685L18.7339 64.6348L17.8139 63.7939L16.9049 62.9944L16.1 62.217L15.411 61.499L14.8766 60.7973L14.4246 60.2237L14.3158 60.0045L14.2167 59.6346L14.2259 59.4821L14.2804 59.3193L14.3367 59.156L14.4051 59.0376L14.5183 58.9072L14.8188 58.7285L15.0703 58.561L15.7203 58.3869L15.9124 58.3854L16.0632 58.3951L16.2673 58.4385L16.4449 58.5411L16.9014 58.7652L17.3954 59.1293L18.5162 59.9722L19.7631 61.0777L21.1661 62.2414L22.6301 63.4388L23.3712 63.985L24.114 64.5308L24.8768 64.9711L25.6741 65.3541L24.4777 64.0349L23.1264 62.511L22.4023 61.6619L21.7236 60.8025L21.0337 59.8942L20.391 58.9752L19.7833 57.993L19.1873 57.0614L18.6824 56.1036L18.23 55.1336L17.8759 54.1854L17.5755 53.2728L17.4981 52.797L17.4296 52.3689L17.3646 51.9398L17.3446 51.4986L17.4004 51.3335L17.4101 51.1828L17.5113 51.0075L17.5796 50.8891L17.8658 50.6642L18.1658 50.4837L18.489 50.3971L18.7798 50.3693L18.9306 50.3789L19.036 50.3988L19.1077 50.4796L19.1915 50.6054L20.0521 51.9644L20.8907 53.4276L21.7403 54.932L22.5788 56.3952L23.4229 57.8645L24.3765 59.1968L24.841 59.8171L25.3504 60.4254L25.8935 60.9727L26.4838 61.5093L25.8456 60.2408L25.3437 59.0858L24.8663 58.0224L24.4996 57.0275L24.1705 56.1727L23.9144 55.3964L23.7856 54.7362L23.6836 54.1688L23.6528 53.6805L23.6915 53.2718L23.7478 53.1085L23.8024 52.9457L23.8707 52.8273L23.984 52.6969L24.112 52.6145L24.5286 52.5028L24.9355 52.542L25.3553 52.622L26.076 54.0186L26.7859 55.368L27.5157 56.612L28.2801 57.7986L29.0908 58.9709L29.9481 60.1307L30.8647 61.3247L31.8728 62.4941L32.5723 63.2517L33.2713 64.0074L34.0152 64.7511L34.761 65.4943L35.5409 66.1783L36.3194 66.8646L37.146 67.5361L37.9708 68.2081L39.4547 69.3001L40.9603 70.2862L42.513 71.2616L44.0923 72.1279L45.7116 72.9854L47.3525 73.737L49.0277 74.4294L50.7375 75.0644L51.8677 75.4544L53.0471 75.7831L54.2735 76.1011L55.4421 76.3827L57.2694 76.738L59.0429 77.0576L60.8847 77.2588L62.7122 77.4139L64.4237 77.5019L66.1513 77.4854L67.9186 77.4084L69.6218 77.3004L71.3969 77.073L73.1131 76.8056L74.8632 76.4848L76.603 76.1187" fill="#1C5337"/>
<path fill-rule="evenodd" clip-rule="evenodd" d="M84.6167 89.0753L85.43 88.9575L85.837 88.9966L85.941 89.0188L85.9536 89.0654L85.862 89.09L85.7806 89.1599L85.0784 89.4982L84.475 89.6598L82.4928 90.0409L80.1177 90.6291L77.5572 91.2652L74.9302 92.0191L73.6853 92.4008L72.4533 92.831L71.3669 93.2222L70.3266 93.5991L69.4843 93.9749L68.7441 94.3657L68.4903 94.5319L68.2388 94.6993L68.0317 94.853L67.8897 95.0411L67.8589 94.5528L67.9143 94.0415L67.6161 94.2214L67.3157 94.4001L67.0749 94.6147L66.8336 94.8276L66.639 95.0279L66.5076 95.2556L66.4314 95.5243L66.4467 95.7684L66.2219 95.4822L66.0539 95.2289L65.9206 94.9182L65.8012 94.6519L65.784 94.4083L65.7561 94.1174L65.7407 93.8733L65.8169 93.6046L65.8622 93.4L65.9797 93.1203L66.1111 92.8926L66.2426 92.6649L66.6654 92.2033L67.135 91.7291C67.4884 91.8257 67.8523 91.8788 68.2185 91.8872C68.5533 91.8271 68.8745 91.7071 69.1668 91.5331C69.321 91.6153 69.4902 91.6655 69.6643 91.6809C69.8384 91.6963 70.0138 91.6765 70.18 91.6226C70.3463 91.5687 70.5 91.4819 70.632 91.3673C70.7639 91.2527 70.8715 91.1127 70.9481 90.9557C71.0224 90.8227 71.0676 90.6754 71.0807 90.5237C71.0691 90.2 70.9842 89.8832 70.8324 89.5971L71.3765 89.4013L72.0002 89.136L72.647 88.7703L73.3405 88.392L74.0433 88.0555L74.69 87.6897L75.3132 87.4227L75.8574 87.2268L75.6739 87.4685L75.2288 88.0342L74.7168 88.7161L74.3406 89.1652L74.981 89.1418L75.5142 89.099L75.2559 89.6147L74.9976 90.1304L74.7375 90.6466L74.567 91.0733L74.9758 91.112L75.3707 91.1063L75.8118 91.0862L76.6468 90.8625L77.0388 90.6593L77.4304 90.4543L77.7073 90.1877L78.1253 90.2681L78.5328 90.309L78.929 90.301L79.3239 90.2953L80.1816 90.1636L81.0883 90.0207L84.6167 89.0753Z" fill="#1C5337"/>
<path fill-rule="evenodd" clip-rule="evenodd" d="M69.6827 90.2478L69.833 90.2556L69.9838 90.2652L70.068 90.3928L70.1517 90.5185L70.1421 90.6693L70.1329 90.8219L70.0192 90.9505L69.6942 91.0376L69.5781 90.9706L69.4472 90.8555L69.3652 90.7293L69.3731 90.579L69.4289 90.4139L69.508 90.3427L69.6755 90.2497" fill="#1C5337"/>
<path fill-rule="evenodd" clip-rule="evenodd" d="M69.6856 90.4454L69.7897 90.4675L69.8609 90.5466L69.8362 90.6552L69.7571 90.7265L69.6566 90.7033L69.5849 90.6225L69.6085 90.5238L69.6893 90.4521" fill="#1C5337"/>
<path d="M69.8869 91.0745C69.8026 91.0975 69.7135 91.0949 69.6307 91.0671C69.548 91.0393 69.4754 90.9875 69.4221 90.9184C69.3688 90.8492 69.3372 90.7658 69.3314 90.6787C69.3256 90.5916 69.3458 90.5047 69.3895 90.4291C69.4331 90.3535 69.4983 90.2926 69.5766 90.2541C69.6549 90.2156 69.7429 90.2012 69.8295 90.2127C69.916 90.2243 69.9971 90.2613 70.0626 90.3191C70.128 90.3769 70.1748 90.4528 70.1971 90.5372C70.2267 90.6496 70.2107 90.7691 70.1526 90.8697C70.0945 90.9703 69.999 91.044 69.8869 91.0745Z" fill="#1C5337"/>
<path fill-rule="evenodd" clip-rule="evenodd" d="M105.515 85.9071L105.227 86.1325L104.915 86.2663L104.651 86.387L104.396 86.3994L104.152 86.4148L103.896 86.3853L103.691 86.34L103.42 86.2761L102.974 86.0973L102.529 85.9181L102.313 85.828L102.056 85.7967L101.864 85.7981L101.632 85.8602L101.452 86.8534L101.195 88.1136L101.089 88.4382L100.972 88.718L100.83 88.9062L100.687 89.0926L100.481 89.248L100.213 89.3197L99.9565 89.2884L99.6411 89.2247L99.512 89.1092L99.3816 88.9959L99.2419 88.8409L99.0864 88.6343L98.8814 88.2427L98.7542 87.9689L98.5379 88.2751L98.3467 88.6747L98.2142 89.1066L98.0475 89.5978L97.8359 90.101L97.598 90.5131L97.4665 90.7408L97.2719 90.9411L97.0653 91.0965L96.812 91.2645L96.6737 91.3015L96.4541 91.4085L96.2105 91.4257L96.0059 91.3804L95.2755 90.8813L94.4959 90.3993L94.253 91.1592L93.9384 91.8382L93.7693 92.1337L93.5979 92.4278L93.4144 92.6695L93.2203 92.8716L93.0653 93.0113L92.8462 93.1201L92.6145 93.1821L92.4224 93.1835L92.2183 93.1401L92.0425 93.0371L91.7883 92.8569L91.6204 92.6036L91.4525 92.3503L91.1488 91.9352L91.0418 91.7155L90.9003 91.561L90.7819 91.4926L90.6903 91.5172L89.9795 93.892L89.848 94.1197L89.5606 94.3468L89.2152 94.5375L88.8703 94.73L88.4537 94.8416L88.1037 94.8354L87.9983 94.8155L87.8225 94.7125L87.7513 94.6334L87.7032 94.4538L87.3366 92.3677L87.2109 92.4514L87.0563 92.5929L86.9013 92.7326L86.7699 92.9603L86.5116 93.476L86.2191 94.0509L85.9387 94.6707L85.5409 95.2257L85.3573 95.4673L85.1738 95.7089L84.9325 95.9218L84.7134 96.0305L84.4027 96.1638L84.1586 96.1792L84.0527 96.1575L83.9366 96.0905L83.8524 95.963L83.8153 95.8247L83.7008 95.2106L83.6307 94.5828L83.5908 94.2471L83.4695 93.9812L83.3483 93.7154L83.0821 93.4403L82.9154 93.9315L82.6133 94.6572L82.1907 95.4286L81.7503 96.1913L81.4874 96.51L81.2278 96.8413L80.9758 97.007L80.7692 97.1624L80.6633 97.1408L80.5251 97.1778L80.4072 97.1113L80.348 97.0771L80.2189 96.9616L80.1351 96.8358L80.087 96.6562L79.9783 96.4371L79.5534 94.6649L78.606 95.7617L77.4519 97.014L77.1662 97.2406L76.8427 97.5198L76.544 97.698L76.1973 97.8909L75.8991 98.0709L75.5741 98.158L75.2384 98.1979L74.935 98.1791L74.9742 97.7722L75.0272 97.4096L75.0788 97.0494L75.1838 96.7229L75.2888 96.3965L75.3938 96.0701L75.5634 95.7764L75.7311 95.4831L76.142 94.9766L76.6462 94.445L77.1731 94.0055L77.806 93.5877L78.4528 93.2219L79.2017 92.8711L79.953 92.5217L80.7144 92.2175L82.4047 91.6665L84.1519 91.1483L87.6732 90.2048L88.5405 89.9223L89.3612 89.6524L90.1823 89.3842L90.9456 89.0797L91.695 88.7307L92.3524 88.4044L92.9992 88.0386L93.5729 87.5866L94.1021 87.1484L94.5107 86.6406L94.9215 86.134L95.2015 85.5125L94.4899 84.71L94.8491 84.5638L95.1945 84.3731L95.518 84.0939L95.7792 83.7757L95.8942 83.6448L96.0042 83.4517L96.0476 83.2476L96.104 83.0843L96.1025 82.8923L96.0154 82.5673L95.874 82.4127L96.6252 82.0632L97.4333 81.7466L98.3007 81.4642L99.2272 81.2159L101.152 80.8002L103.134 80.4174L105.187 80.1155L107.182 79.7735L109.128 79.4445L110.914 79.0641L111.088 79.7123L111.115 80.0031L111.097 80.3065L111.08 80.6093L111.048 80.866L110.958 81.0826L110.841 81.3623L110.602 81.7726L110.26 82.1626L109.892 82.4538L109.454 82.6713L108.969 82.9013L108.446 82.9912L107.97 83.0687L107.425 83.0666L106.9 82.9591L106.375 82.8516L105.916 82.6262L105.447 82.3554L105.657 83.1419L105.791 84.1993L105.835 84.732L105.819 85.2328L105.776 85.4369L105.675 85.6122L105.618 85.7755L105.515 85.9071ZM67.1069 91.5315L68.2958 91.7095L68.5121 91.4033L68.8074 91.0258L69.1619 90.6826L69.4715 90.3513L70.7127 89.4241L71.7666 88.5451L72.3079 88.1518L72.7419 87.7391L73.1773 87.3241L73.5193 86.9342L74.3997 85.9535L75.2784 84.9732L76.1228 84.0522L76.8756 83.1557L77.4214 82.4129L77.8419 81.7556L78.2943 81.0377L78.7813 80.2625L78.9509 79.9688L79.1811 79.7147L79.458 79.448L79.7798 79.1693L80.4551 78.5727L81.1689 78.0831L82.1591 77.5195L83.2427 76.9308L84.3855 76.3764L85.667 75.7866L87.235 75.174L88.789 74.5094L90.4072 73.8833L91.9487 73.172L92.4808 72.9312L92.9533 72.6545L93.4711 72.3676L93.9907 72.0802L94.3593 71.2366L94.9784 70.0276L95.4205 69.2644L95.9663 68.5216L96.5916 67.7093L97.3565 66.8577L98.5454 65.6423L99.8281 64.5037L101.147 63.3073L102.442 62.2155L103.646 61.1482L104.769 60.1526L105.686 59.3101L106.371 58.532L106.403 57.7631L106.54 56.9816L106.773 56.1746L107.095 55.3435L107.452 54.4527L107.949 53.5249L108.467 52.4931L109.156 51.3654L109.792 50.4001L110.474 49.4245L110.85 48.9754L111.226 48.5262L111.662 48.1131L112.096 47.6986L112.544 47.3303L113.005 47.0141L113.523 46.7254L113.996 46.4505L114.54 46.2546L115.036 46.0718L115.605 45.9693L116.14 45.926L116.242 46.4934L116.253 47.0871L116.222 47.6901L116.152 48.3555L115.99 49.0436L115.734 49.7568L115.391 50.5435L114.963 51.3529L115.414 51.1821L115.805 50.9771L116.104 50.799L116.391 50.5718L116.645 50.4057L116.943 50.2257L117.347 50.0674L117.806 49.8964L117.939 50.2071L118.026 50.5321L118.066 50.8679L118.049 51.1707L117.984 51.4866L117.879 51.813L117.761 52.0928L117.592 52.3865L116.866 53.572L116.131 54.7139L116.698 54.6102L117.348 54.6285L117.999 54.6464L118.487 54.6139L118.042 55.1814L117.506 55.7717L116.969 56.362L116.339 56.9773L115.709 57.5926L115.093 58.2541L114.468 58.9856L113.921 59.7267L114.259 59.6863L114.724 59.7542L114.916 59.7528L115.12 59.798L115.273 59.8072L115.399 59.7235L114.609 60.4817L113.599 61.3469L113.119 61.7739L112.73 62.1763L112.536 62.3767L112.433 62.5525L112.379 62.7171L112.322 62.8803L112.417 63.0474L112.546 63.1629L112.763 63.2531L112.939 63.3561L112.94 63.5481L112.885 63.7109L112.743 63.8973L112.601 64.0855L112.272 64.4391L111.78 64.8195L111.271 65.1482L110.809 65.4644L110.487 65.7431L110.247 65.9577L111.421 66.636L111.183 67.0463L110.922 67.3645L110.681 67.5791L110.395 67.804L109.77 68.0716L108.883 68.3092L109.088 68.7008L109.338 69.0804L109.555 69.5186L109.771 69.9573L109.146 70.7696L108.359 71.7253L107.48 72.7055L106.461 73.7233L105.868 74.296L105.262 74.8126L104.593 75.2843L103.879 75.772L103.126 76.2721L102.294 76.6875L101.416 77.1153L100.479 77.5143L102.205 77.102L103.688 76.7046L105.04 76.1921L106.26 75.7171L107.356 75.1751L108.302 74.6235L109.221 73.9808L110.095 73.3501L111.23 72.3994L112.3 71.3677L113.305 70.3055L114.364 69.2271L113.513 69.0701L112.709 69.0372L112.303 68.998L111.885 68.9176L111.418 68.8501L110.939 68.7301L111.236 68.3522L111.605 68.061L112.067 67.7448L112.584 67.456L113.634 66.9266L114.755 66.478L115.737 66.0646L116.639 65.7248L116.984 65.5323L117.283 65.3541L117.437 65.2126L117.538 65.0373L117.479 65.0032L117.363 64.9343L117.211 64.927L117.006 64.8817L116.471 64.925L115.798 65.0071L115.137 65.1341L114.464 65.2144L113.871 65.2253L113.464 65.1861L114.646 64.571L115.828 63.9559L116.878 63.4264L117.742 62.9465L118.468 62.5037L119.087 62.0396L119.375 61.8143L119.57 61.614L119.764 61.4118L119.895 61.1842L119.836 61.15L119.72 61.0829L119.528 61.0844L119.284 61.0997L118.668 61.2147L117.973 61.4009L117.22 61.5525L116.514 61.6938L115.885 61.7621L115.49 61.7678L115.778 61.5425L116.064 61.3176L117.089 60.6948L117.987 60.1557L118.805 59.6883L119.564 59.1885L120.343 58.6469L121.127 58.052L121.481 57.7088L121.789 57.378L121.89 57.2027L121.982 56.9856L122.083 56.8085L122.093 56.6577L122.009 56.532L121.846 56.4756L121.693 56.4665L120.397 56.8139L119.807 57.0217L118.974 57.245L118.73 57.2604L118.526 57.2169L118.321 57.1716L119.852 55.4702L121.267 53.8997L122.537 52.5184L123.631 51.2319L124.062 50.62L124.448 50.0201L124.74 49.4452L124.988 48.8823L125.128 48.2983L125.223 47.7262L125.214 47.1338L125.053 46.5305L124.728 46.6176L124.417 46.7509L124.083 46.9905L123.75 47.2279L123.132 47.8899L122.45 48.5557L122.094 48.8994L121.786 49.2302L121.418 49.5214L121.039 49.773L120.692 49.9642L120.334 50.11L119.918 50.2216L119.511 50.1825L120.398 49.0497L121.37 47.6481L122.47 46.0062L123.534 44.2333L124.573 42.3652L125.52 40.5239L125.912 39.574L126.315 38.6712L126.626 37.7948L126.903 36.9757L126.947 36.7716L126.957 36.6208L126.862 36.4538L126.778 36.328L126.696 36.2L126.531 36.1459L126.355 36.0429L126.203 36.0338L125.998 35.9903L125.806 35.9917L125.437 36.0909L125.269 36.1857L125.05 36.2944L124.947 36.4702L124.805 36.6566L124.166 37.7207L123.455 38.9524L122.721 40.2923L121.895 41.655L121.044 42.926L120.181 44.1504L119.725 44.669L119.302 45.1306L118.82 45.5563L118.418 45.9121L118.669 45.5484L118.974 45.0184L119.382 44.3144L119.797 43.4583L120.707 41.4824L121.681 39.1852L122.148 37.9688L122.57 36.7627L123.005 35.6051L123.333 34.424L123.641 33.3483L123.881 32.391L124.04 31.5036L124.098 30.7933L124.082 30.5491L123.983 30.1792L123.9 30.0535L123.771 29.938L123.64 29.8247L123.524 29.7559L123.374 29.7363L123.059 29.6726L122.71 29.6658L122.055 29.8415L121.888 29.9363L121.762 30.02L121.608 30.1615L121.506 30.3368L121.222 30.7614L120.976 31.322L120.426 32.6123L119.906 34.1912L119.32 35.888L118.65 37.6552L118.221 38.5187L117.851 39.3628L117.411 40.1255L116.912 40.8559L117.335 39.1027L117.698 37.1193L117.901 36.0237L118.057 34.9389L118.2 33.8073L118.297 32.6901L118.337 31.5382L118.387 30.4317L118.346 29.3515L118.252 28.2834L118.083 27.2857L117.881 26.3466L117.711 25.8959L117.552 25.4918L117.396 25.0872L117.211 24.6904L117.127 24.5646L116.998 24.4491L116.821 24.3483L116.704 24.2795L116.342 24.2283L115.992 24.222L115.669 24.3087L115.403 24.4299L115.324 24.5011L115.196 24.5854L115.174 24.6894L115.167 24.8415L115.113 26.4937L115.104 28.1339L115.12 29.8616L115.12 31.563L115.126 33.2494L114.966 34.8817L114.888 35.6956L114.737 36.4309L114.553 37.225L114.297 37.9422L114.215 36.5245L114.072 35.2715L113.954 34.1119L113.772 33.0674L113.63 32.1626L113.465 31.3636L113.245 30.7278L113.049 30.1837L112.832 29.7455L112.594 29.4126L112.463 29.2976L112.335 29.1838L112.216 29.1155L112.066 29.1058L111.914 29.0985L111.763 29.0888L111.625 29.1259L111.497 29.2101L111.152 29.4008L110.83 29.6795L110.902 31.2498L110.962 32.7733L110.966 34.2158L110.9 35.6153L110.784 37.0358L110.622 38.4707L110.427 39.9625L110.139 41.4793L109.911 42.4833L109.684 43.4873L109.409 44.5038L109.135 45.5203L108.804 46.5022L108.471 47.4863L108.092 48.4807L107.712 49.4755L106.973 51.1631L106.163 52.7717L105.307 54.3905L104.373 55.9322L103.399 57.4826L102.354 58.954L101.25 60.393L100.086 61.7961L99.2973 62.7022L98.4511 63.6237L97.5946 64.4998L96.7359 65.3746L95.3185 66.5493L93.9011 67.7239L92.396 68.7719L90.889 69.8204L89.6108 70.6094L88.3331 71.4002L86.9832 72.1083L85.6338 72.8182L84.2594 73.4348L82.8261 74.0113L81.4377 74.5758L79.9813 75.0661L79.8533 75.1485L79.7275 75.2322L79.4867 75.4469L79.2256 75.7651L78.8739 76.3058L78.4193 77.0223L77.8782 77.9622L77.2573 79.1716L76.6849 80.3681L75.997 81.6937L75.6255 82.3398L75.2517 82.9846L74.7725 83.6096L74.2782 84.2501L73.902 84.6992L73.5133 85.1017L73.0654 85.47L72.6193 85.8378L71.6356 86.5979L70.6357 87.3123L69.634 88.0272L68.7617 88.6574L68.3932 88.9486L68.0369 89.2923L67.7151 89.571L67.4849 89.8251L67.2807 90.1763L67.1129 90.4695L67.0349 90.7386L67.0054 90.9948L67.0458 91.3323L67.0939 91.5119" fill="#1C5337"/>
<path d="M69.7671 90.7641C69.7316 90.7737 69.6941 90.7724 69.6593 90.7606C69.6244 90.7488 69.5939 90.7269 69.5715 90.6977C69.5491 90.6686 69.5359 90.6334 69.5335 90.5967C69.5311 90.56 69.5396 90.5235 69.558 90.4916C69.5764 90.4598 69.6038 90.4341 69.6368 90.4178C69.6698 90.4016 69.7068 90.3955 69.7433 90.4003C69.7797 90.4051 69.8139 90.4206 69.8416 90.4448C69.8692 90.469 69.8891 90.5009 69.8986 90.5365C69.9113 90.5841 69.9047 90.6348 69.88 90.6775C69.8554 90.7202 69.8147 90.7514 69.7671 90.7641Z" fill="#1C5337" stroke="white" stroke-width="0.070641"/>
</g>
<defs>
<clipPath id="clip0_1_140">
<rect width="116" height="104.103" fill="white" transform="translate(0 11.0234) rotate(-15)"/>
</clipPath>
</defs>
</svg>
