<svg width="86" height="98" viewBox="0 0 86 98" fill="none" xmlns="http://www.w3.org/2000/svg">
<path fill-rule="evenodd" clip-rule="evenodd" d="M77.4532 17.1853C75.3 16.1238 72.8016 16.8307 71.4817 17.6603C72.1143 16.2503 74.055 14.7131 74.6713 14.4246C75.2135 14.4772 77.0152 15.5507 77.4532 17.1853ZM81.3243 9.3633C78.5341 3.5365 65.3674 11.4206 57.4901 10.7388C57.8316 12.5638 60.947 14.8 63.4769 15.2587C60.5308 19.6187 58.883 27.2542 60.385 35.6409C57.4944 27.6263 52.2494 21.8376 47.5183 19.5348C49.4797 17.8726 51.0616 14.3778 50.443 12.627C43.962 17.1561 28.6171 16.9117 29.112 23.3536C29.2182 24.7164 30.3729 26.5276 31.2002 26.9154C31.2105 26.4717 31.4803 24.957 33.3865 24.1228C43.0236 19.9141 55.5566 33.1467 49.6645 41.4334C49.5747 41.5594 49.6864 41.7178 49.8428 41.6759L72.5358 35.5953C72.6902 35.554 72.7083 35.3607 72.5694 35.2961C63.3211 31.0662 67.5589 13.3399 78.009 12.1663C80.0789 11.935 81.0676 13.1125 81.2989 13.4914C81.8213 12.7421 81.9158 10.5965 81.3243 9.3633ZM79.9947 -5.37C79.6591 -5.9012 85.5442 -7.49363 86.5318 -3.80779C87.1937 -1.33741 83.9847 0.776468 84.6716 3.33997C84.9915 4.53394 86.5107 5.06558 86.9048 4.95997C84.8947 1.08728 89.2234 2.23587 90.4426 2.73422C86.9464 -2.26114 91.4879 -3.44058 90.3617 -5.85884C89.576 -7.5493 85.7805 -5.95802 84.1142 -6.47381C81.1577 -7.38842 76.5045 -12.7831 76.1924 -6.05799C80.7841 -3.62941 79.9909 1.96815 75.3232 3.21886C75.3232 3.21886 75.4944 3.96262 75.5529 4.00968C81.0473 2.24534 81.8914 -2.3663 79.9947 -5.37ZM17.7673 22.2075C18.5743 21.1662 21.7482 18.0073 21.9461 22.3656C22.3381 22.2606 23.3879 21.0406 23.068 19.8466C22.3811 17.2831 18.5449 17.057 17.883 14.5866C16.8953 10.9006 22.7883 9.33728 22.7632 9.96515C22.6243 13.5141 25.6618 17.086 31.3018 15.8667C31.327 15.7972 31.1036 15.0675 31.1036 15.0675C26.4378 16.3176 22.9518 11.8663 25.7124 7.46811C22.0795 1.80005 20.7471 8.79854 18.644 11.0689C17.459 12.3489 13.3762 12.8684 13.541 14.7252C13.7766 17.3821 18.2975 16.1335 17.7673 22.2075ZM36.3179 28.2073C37.6536 26.2109 40.1708 25.5739 41.7269 25.6329C40.4779 24.727 38.0247 24.3672 37.3487 24.425C36.9055 24.7416 35.8799 26.5727 36.3179 28.2073ZM50.3689 -12.3354L46.7658 -14.919L44.9373 -10.88L48.587 -8.12282L50.3689 -12.3354ZM68.5549 -6.47689L65.9929 -8.3127L64.694 -5.44237L67.2398 -3.65932L68.5549 -6.47689ZM102.446 57.3462L99.3034 55.4113L97.5495 58.6582L100.607 60.2748L102.446 57.3462ZM35.9796 2.25126L33.4174 0.415498L32.1185 3.28583L34.6644 5.06905L35.9796 2.25126ZM33.5378 15.2672L40.7411 13.3371C46.7972 11.7144 48.5265 7.26701 48.4862 3.82282L54.6485 2.17163C56.3359 5.17468 60.0549 8.16216 66.1133 6.53882L73.3165 4.60872C73.3165 4.60872 74.1185 2.56157 74.2075 1.63047C74.5292 -1.72065 72.6947 -2.75185 70.5738 -2.18354L68.4977 1.03603L65.09 -0.714172C62.969 -0.14586 61.8961 1.66436 63.8501 4.40574C64.0995 4.75649 64.6004 5.23533 65.064 5.65004C62.4139 5.98375 58.6827 5.10835 56.9625 1.55159C56.9625 1.55159 58.0472 -1.95474 58.1961 -3.29585C58.7291 -8.11811 56.0759 -9.32016 52.8953 -8.46793L50.0824 -2.54042L44.6829 -6.26743C41.5024 -5.4152 39.8056 -3.04777 42.6801 0.861631C43.4779 1.94928 46.1722 4.44304 46.1722 4.44304C46.4591 8.38386 43.6655 11.0075 41.2036 12.0436C41.3998 11.4521 41.5922 10.7873 41.6329 10.359C41.9523 7.00849 40.1219 5.97621 37.9988 6.54509L35.9229 9.76461L32.5154 8.01436C30.3927 8.58314 29.3233 10.3924 31.2754 13.1343C31.8181 13.8961 33.5378 15.2672 33.5378 15.2672ZM113.994 17.641C112.791 18.7177 105.659 24.7245 94.8312 26.1109C94.8059 25.5834 94.7632 25.057 94.7032 24.5324C101.434 21.837 106.771 19.1431 109.837 16.1739C113.331 12.788 113.665 6.85107 110.504 3.34727C110.423 3.25926 110.27 3.28093 110.218 3.38648C109.433 4.99828 104.372 14.681 93.7677 20.1111C93.5828 19.536 93.3737 18.969 93.141 18.4115C97.7754 13.8479 102.154 8.84723 103.82 4.90102C106.338 -1.065 104.297 -7.26716 99.7824 -9.49878C99.7357 -9.52115 99.6817 -9.52235 99.6341 -9.50206C99.5865 -9.48178 99.5499 -9.44197 99.5337 -9.3928C98.8886 -7.17609 92.7533 13.2161 82.8945 23.9512C82.7744 24.0828 82.6526 24.2129 82.529 24.3413C82.2441 24.6392 82.3256 25.0914 82.6862 25.277C84.3885 26.1515 85.703 27.6512 86.217 29.5693C87.1106 32.9042 85.2829 36.3667 82.046 37.8787C80.4087 38.6761 77.8898 39.2471 75.2835 39.0972C75.1663 39.0911 75.074 39.1923 75.1029 39.3002L77.9332 49.8631C77.9787 50.033 78.2486 50.0058 78.266 49.8264C78.6882 45.5806 82.8259 43.5937 84.7314 43.0831C86.5217 47.0207 88.6613 50.1063 90.7449 51.5174C94.1358 53.8089 98.3557 52.6332 99.6374 50.0772C99.6585 50.035 99.6591 49.9854 99.6391 49.9426C99.619 49.8998 99.5805 49.8685 99.5345 49.8576C98.2906 49.527 91.108 47.393 88.2107 41.5181C88.6531 41.2193 89.0776 40.9016 89.473 40.5545C92.3467 43.316 96.0309 45.4741 98.6641 45.9698C103.087 46.7996 106.429 44.924 107.283 41.7459C107.315 41.6335 107.212 41.5317 107.092 41.5523C104.616 42.0078 96.6051 41.8692 92.0456 37.5235C92.3191 37.0934 92.581 36.6509 92.813 36.1929C96.8033 37.828 102.088 38.8029 105.565 38.3592C109.634 37.8412 113.746 35.3967 112.631 30.8023C112.608 30.7103 112.506 30.6573 112.412 30.6889C111.038 31.1469 101.905 34.0252 94.3081 32.01C94.4203 31.5139 94.5149 31.014 94.5918 30.5112C94.5918 30.5112 105.171 30.197 109.676 28.1547C114.153 26.1262 115.961 21.8987 114.268 17.6966C114.224 17.5922 114.08 17.5629 113.994 17.641ZM28.0622 48.3383C28.3808 48.7352 28.7133 49.1206 29.0591 49.494C23.4891 55.0352 14.1454 57.1115 12.721 57.4015C12.6209 57.4221 12.5602 57.5226 12.586 57.6118C13.9189 62.146 18.7008 62.207 22.4835 60.6213C25.7152 59.2674 29.8056 55.7805 32.4438 52.3693C32.8756 52.6495 33.3219 52.9022 33.7733 53.1379C31.9958 59.1812 25.1297 63.3062 22.7576 64.1497C22.6435 64.1919 22.607 64.331 22.6889 64.413C25.0174 66.7383 28.85 66.6913 32.2668 63.7611C34.2977 62.0157 36.4093 58.3046 37.5174 54.4765C38.0347 54.5787 38.5616 54.6414 39.0918 54.6797C39.5203 61.2161 34.3672 66.6554 33.4549 67.5638C33.421 67.5965 33.4036 67.6427 33.4077 67.6896C33.4117 67.7365 33.4368 67.779 33.4758 67.8054C35.8637 69.3781 40.1078 68.2858 41.8987 64.6058C42.9979 62.3418 43.3062 58.6004 42.8878 54.2954C44.795 53.7844 49.3698 53.4368 51.8585 56.9026C51.9654 57.0485 52.2123 56.937 52.1668 56.7672L49.3364 46.2043C49.3076 46.0965 49.1753 46.0556 49.0768 46.1192C46.8946 47.5522 44.4279 48.3173 42.6131 48.4448C39.0522 48.7544 35.7381 46.6696 34.8445 43.3345C34.3305 41.4162 34.7201 39.458 35.7556 37.8499C35.9773 37.5102 35.8198 37.0781 35.426 36.9623C35.2536 36.9131 35.0818 36.8618 34.9106 36.8083C21.0137 32.4427 5.5131 17.8614 3.83313 16.2536C3.75496 16.1785 3.62011 16.1952 3.55867 16.286C0.770501 20.4763 2.10226 26.8665 7.26505 30.7725C10.6811 33.3569 16.9727 35.4985 23.2667 37.1339C23.3446 37.7328 23.4476 38.3282 23.5756 38.9184C11.6864 39.5174 2.47172 33.6732 0.972066 32.6643C0.871877 32.5951 0.724097 32.6543 0.699641 32.7706C-0.280789 37.3858 2.97564 42.357 7.69074 43.5433C11.8302 44.5819 17.7991 44.2465 24.9761 43.2151C25.1864 43.6994 25.4126 44.1767 25.6543 44.6462C15.5949 48.8546 6.4203 47.2271 4.82863 46.8929C4.71032 46.8679 4.60148 46.9677 4.61795 47.0808C5.25438 51.5665 8.93068 54.3205 13.8224 53.8386C18.7434 53.3552 28.0622 48.3383 28.0622 48.3383ZM101.501 63.6117L97.1114 61.7306C95.896 62.9795 95.1992 64.6323 95.2162 66.3462C93.1176 67.2358 86.8189 67.5087 87.1622 66.4782C91.2223 55.5682 84.7766 51.4476 78.8687 53.3558L80.5178 59.5105C81.0474 61.487 79.7515 63.5508 77.6267 64.1201L73.491 65.2283C70.5241 66.0232 69.3918 69.5231 69.3918 69.5231C69.3918 69.5231 66.6616 67.0582 63.6947 67.8532L59.5586 68.9614C57.4324 69.5311 55.2819 68.3908 54.7523 66.4143L53.1032 60.2599C47.0325 61.5614 43.5069 68.3538 52.4799 75.7715C53.2846 76.4846 47.5462 79.5098 44.5858 79.9266C43.6214 79.3462 42.3996 79.1445 41.1802 79.4713C40.6618 79.6103 40.1723 79.8404 39.7344 80.1508C39.7344 80.1508 25.6144 72.5053 25.3801 72.4563L25.4153 72.2156C25.7351 70.8444 24.4034 69.8 23.8072 70.0579C24.2965 68.9999 23.3156 65.204 19.0804 65.4001C19.4013 66.1294 19.8767 67.666 19.8767 67.666C19.8767 67.666 16.3419 66.8238 15.1775 68.6798C14.2473 70.6578 16.9217 73.0766 16.9217 73.0766C16.9217 73.0766 15.3519 73.5384 14.5554 73.6812C16.7383 77.2469 20.5052 75.9436 21.1314 74.9568C21.2423 75.5875 22.8664 76.0929 23.8543 75.0736L24.304 74.6847C24.4279 74.7826 38.1742 82.2071 38.1742 82.2071C37.8707 83.0899 37.8769 84.072 38.3043 85.006C38.9742 86.4649 40.5874 87.3906 42.302 87.2838C43.5124 87.2066 44.5326 86.694 45.2631 85.9554L48.889 87.8726C49.2103 88.0374 49.5988 88.0898 49.9816 87.9581C50.679 87.7201 51.0563 87.0016 50.8257 86.3561C50.7235 86.0641 50.5026 85.8491 50.2405 85.7115C50.1802 85.6726 46.5451 83.7502 46.5451 83.7502C48.4952 81.4226 52.6518 79.0374 56.3658 78.0422C57.0183 77.8674 57.177 77.2331 56.8071 76.7518C54.0404 73.1563 56.8726 69.2563 61.2539 70.6396C63.165 71.2426 65.3723 72.848 67.5377 75.9324C61.7961 79.0643 55.1847 85.225 54.823 90.1138C54.685 92.0008 57.299 93.8223 59.835 93.6506C59.8802 93.6486 59.9227 93.6286 59.953 93.595C59.9833 93.5614 59.9989 93.5171 59.9963 93.472C59.4666 86.4609 65.3111 79.5643 68.8193 77.7189C69.1418 78.1714 69.0368 78.0252 69.3588 78.4758C65.807 81.4892 62.9495 86.6034 63.1154 91.7284C63.1905 94.0758 66.187 95.4069 68.3667 95.4071C68.4762 95.407 68.5576 95.3088 68.5367 95.2086C67.2889 89.0054 68.5945 83.1037 70.3757 80.1004C70.5652 80.5433 70.7389 80.9929 70.8964 81.4482C70.8964 81.4482 70.2706 88.9942 71.6164 94.0169C72.2425 96.3535 76.1519 97.0542 76.7262 97.1452C77.3062 96.7449 80.3397 94.1838 79.7137 91.8473C78.3678 86.8244 74.0529 80.6024 74.0529 80.6024C73.9622 80.1292 73.8884 79.6529 73.8316 79.1744C76.8741 80.8852 80.9568 85.341 82.976 91.3373C83.0081 91.4347 83.1299 91.4805 83.2227 91.4263C85.1124 90.3361 87.0402 87.6854 85.9334 85.6148C83.5123 81.0938 78.4827 78.0931 73.8999 77.2594C73.9516 76.7085 73.9338 76.8876 73.9869 76.3345C77.9497 76.178 86.4576 79.2285 89.5043 85.5652C89.5248 85.6054 89.5605 85.6358 89.6035 85.6497C89.6465 85.6636 89.6932 85.6598 89.7334 85.6391C92.0137 84.5207 93.3703 81.6349 92.3037 80.071C89.55 76.0171 80.7419 73.988 74.2037 74.1464C74.5385 70.3921 75.6473 67.8982 77.0006 66.4205C80.1015 63.0323 84.5042 64.9941 83.9061 69.4911C83.8261 70.0925 84.2789 70.5629 84.9334 70.3875C89.1342 69.2619 94.716 69.393 97.3095 70.8791C99.1446 72.4922 101.9 73.1003 104.556 72.1C107.576 70.966 109.48 67.959 109.058 64.9858C108.686 62.3808 106.774 60.465 104.364 59.7882L101.501 63.6117ZM69.8574 52.3896C71.0211 51.5647 73.1493 51.4098 73.5802 53.293C73.6767 53.7198 74.2698 53.5608 74.1968 53.1179C73.8354 50.2224 71.7329 49.9233 69.8466 50.7796C69.3441 49.8853 68.9185 49.1 68.4669 48.3293C68.1046 47.7055 67.6989 46.4598 68.4779 46.251C68.8981 46.1385 69.0441 47.3596 69.1408 47.8763C69.2243 48.3301 69.4562 48.5561 69.8204 48.4722C70.0479 48.421 70.2518 48.0589 70.368 47.8237C71.1559 46.2428 70.8879 44.1944 69.3086 43.5947C67.9863 43.0905 65.3723 44.4298 64.9156 45.775C64.6855 45.376 63.9451 44.8141 63.5981 44.5757C63.261 44.343 63.1387 44.1542 63.4227 43.7941C63.5558 43.6211 63.9267 42.983 63.7875 42.4636C63.7052 42.1565 63.3154 41.6533 62.5589 41.856C61.9621 42.0159 61.4093 42.6071 61.6562 43.5285C61.7111 43.7334 61.8201 43.9396 62.0152 44.1401C61.6211 44.1789 60.6038 44.479 60.1126 44.7497L72.7349 62.7616C74.5415 61.1761 75.6316 59.1399 75.1638 57.3939C74.7649 55.9053 72.7053 56.9864 71.9514 58.4329C71.1037 56.6377 70.332 54.9768 69.5339 53.3288C69.3146 52.8741 69.5114 52.6371 69.8574 52.3896ZM55.9391 41.5863L58.6047 45.4223C57.3794 46.0839 55.5309 47.602 55.8695 48.8653C56.3203 50.5477 59.5897 50.8454 61.2758 50.2524C61.2931 50.6594 61.4834 50.9748 61.8348 51.2157C61.2102 51.383 60.1097 51.9895 59.8346 52.51C58.6941 51.9044 57.1836 51.9779 56.6437 52.6772C56.1013 53.3811 56.3176 54.2697 57.2969 55.0773C57.9783 55.6355 58.3471 56.2677 58.004 57.2178C60.0784 56.662 58.5917 54.1699 59.4041 53.9522C59.4383 54.5035 59.6655 55.0913 60.0815 55.699C60.3572 56.1032 60.4419 56.4196 60.2894 56.921C59.9069 58.17 59.5244 60.9062 60.2609 63.09C59.5795 63.2684 59.1891 63.1945 59.1802 62.2017C59.1766 61.8319 58.8969 61.6425 58.7285 62.1443C58.5421 62.6979 58.6065 63.5409 58.6986 63.8844C59.2287 65.863 61.6923 65.63 62.4799 64.9703C65.7574 66.7913 70.6894 64.7498 72.175 63.4464L56.5569 41.1616C56.2479 40.7448 55.6477 41.1449 55.9391 41.5863ZM61.0776 62.0128C60.6192 61.0458 61.5469 58.8494 62.8766 56.6138C62.7998 57.859 63.5654 59.7646 64.4981 60.2418C63.193 60.5915 61.7083 61.2519 61.0776 62.0128Z" fill="#1C5337"/>
</svg>
