<svg width="12" height="12" viewBox="0 0 12 12" fill="none" xmlns="http://www.w3.org/2000/svg">
<path d="M4.6406 11.1836C4.2422 11.1836 3.91406 11.0195 3.60938 10.6094L0.667969 7C0.492189 6.7656 0.386719 6.5078 0.386719 6.2383C0.386719 5.7109 0.796879 5.2773 1.32422 5.2773C1.66406 5.2773 1.92188 5.3828 2.21484 5.7695L4.5938 8.8398L9.5977 0.800778C9.8203 0.449218 10.125 0.261719 10.4297 0.261719C10.9453 0.261719 11.4258 0.613279 11.4258 1.16406C11.4258 1.42188 11.2734 1.69141 11.1328 1.9375L5.625 10.6094C5.3789 10.9961 5.0391 11.1836 4.6406 11.1836Z" fill="#0F3F15"/>
</svg>
