<svg width="9" height="15" viewBox="0 0 9 15" fill="none" xmlns="http://www.w3.org/2000/svg">
<path d="M8.28558 7.62221C8.28558 7.83142 8.21025 8.01564 8.05121 8.17464L1.41338 14.6618C1.27108 14.8125 1.08694 14.8879 0.869298 14.8879C0.434012 14.8879 0.099226 14.5614 0.099226 14.1261C0.099226 13.9085 0.191298 13.7243 0.325226 13.582L6.41895 7.62221L0.325226 1.66237C0.191298 1.52007 0.099226 1.32755 0.099226 1.11829C0.099226 0.683018 0.434012 0.356567 0.869298 0.356567C1.08694 0.356567 1.27108 0.431902 1.41338 0.574202L8.05121 7.06974C8.21025 7.22041 8.28558 7.41293 8.28558 7.62221Z" fill="black" fill-opacity="0.85"/>
</svg>
