<svg width="9" height="15" viewBox="0 0 9 15" fill="none" xmlns="http://www.w3.org/2000/svg">
<path d="M0.714417 7.62221C0.714417 7.83142 0.789752 8.01564 0.948792 8.17464L7.58662 14.6618C7.72892 14.8125 7.91306 14.8879 8.1307 14.8879C8.56599 14.8879 8.90077 14.5614 8.90077 14.1261C8.90077 13.9085 8.8087 13.7243 8.67477 13.582L2.58105 7.62221L8.67477 1.66237C8.8087 1.52007 8.90077 1.32755 8.90077 1.11829C8.90077 0.683018 8.56599 0.356567 8.1307 0.356567C7.91306 0.356567 7.72892 0.431902 7.58662 0.574202L0.948792 7.06974C0.789752 7.22041 0.714417 7.41293 0.714417 7.62221Z" fill="black" fill-opacity="0.85"/>
</svg>
